<svg width="144" height="10" viewBox="0 0 144 10" fill="none" xmlns="http://www.w3.org/2000/svg">
<g clip-path="url(#clip0_202_4)">
<path d="M2.128 4.84C2.128 7.016 2.96 8.84 5.328 8.84C7.696 8.84 8.528 7.016 8.528 4.84C8.528 2.664 7.696 0.839999 5.328 0.839999C2.96 0.839999 2.128 2.664 2.128 4.84ZM0.592 4.84C0.592 2.2 2.912 0.44 5.328 0.44C7.744 0.44 10.064 2.2 10.064 4.84C10.064 7.48 7.744 9.24 5.328 9.24C2.912 9.24 0.592 7.48 0.592 4.84ZM13.1519 4.504C13.4719 4.312 14.3519 3.704 15.1519 3.064C15.9519 2.424 16.6719 1.512 16.6719 1.208C16.6719 1.016 16.6399 0.888 16.4639 0.792C16.3839 0.743999 16.2879 0.743999 16.2879 0.712C16.2879 0.648 16.3359 0.632 16.5279 0.632C16.7039 0.632 17.1839 0.679999 17.8239 0.679999C18.3359 0.679999 18.7839 0.632 19.0399 0.632C19.1999 0.632 19.4079 0.664 19.4079 0.712C19.4079 0.776 19.3119 0.792 19.1519 0.823999C18.5439 0.936 17.5519 1.768 16.6239 2.456L14.1919 4.264V4.296C16.1599 4.296 16.7359 4.904 17.6639 6.392C18.0799 7.064 18.4639 7.576 18.8959 8.024C19.2159 8.376 19.5359 8.6 19.8559 8.744C20.0159 8.824 20.1599 8.872 20.1599 8.92C20.1599 8.968 20.0959 9 19.9039 9H17.7599L16.1759 6.408C15.7279 5.672 14.9759 4.68 14.0159 4.68C13.2159 4.68 13.1519 5.528 13.1519 6.28V7.08C13.1519 7.768 13.2959 8.632 13.7439 8.792C13.9039 8.84 14.1119 8.92 14.1119 8.984C14.1119 9.016 14.0479 9.032 13.8879 9.032C13.6159 9.032 13.0239 9 12.5599 9C12.0959 9 11.5039 9.032 11.2319 9.032C11.0399 9.032 10.9599 9.016 10.9599 8.984C10.9599 8.936 11.1519 8.872 11.3599 8.728C11.8239 8.424 11.9679 7.496 11.9679 6.072V3.208C11.9679 2.312 12.0479 1.208 11.5519 0.92C11.3919 0.823999 11.2959 0.776 11.2959 0.728C11.2959 0.648 11.4399 0.632 11.5199 0.632C11.7919 0.632 12.0959 0.679999 12.5599 0.679999C13.0239 0.679999 13.3759 0.632 13.6479 0.632C13.7599 0.632 13.8559 0.648 13.8559 0.695999C13.8559 0.759999 13.7759 0.792 13.6159 0.888C13.1199 1.208 13.1519 1.752 13.1519 2.92V4.504ZM28.7554 1.4L28.3554 2.76C28.3234 2.872 28.2914 2.904 28.2434 2.904C28.1794 2.904 28.0994 2.776 27.8754 2.264C27.5394 1.224 26.0834 0.856 25.1394 0.839999C22.7394 0.823999 21.9874 2.76 21.9874 4.92C21.9874 6.968 23.0434 8.84 25.2674 8.84C27.1874 8.84 28.2914 7.288 28.5794 6.856C28.6434 6.728 28.7074 6.68 28.7554 6.68C28.8354 6.68 28.8834 6.856 28.8834 6.904C28.8834 6.968 28.8514 7.032 28.8194 7.08C27.8274 8.568 26.6114 9.24 24.9794 9.24C22.5154 9.24 20.4514 7.448 20.4514 4.904C20.4514 2.216 22.4674 0.408 25.1394 0.44C26.9154 0.471999 28.3874 1.048 28.7554 1.4ZM36.5918 4.264H35.4078C33.7118 4.264 31.4557 4.584 31.4557 6.712C31.4557 8.12 32.5438 8.84 33.8398 8.84C36.2398 8.84 36.5918 6.92 36.5918 4.968V4.264ZM37.8718 3.56V6.6C37.8718 7.608 37.9998 8.648 38.4318 8.792C38.5118 8.824 38.5598 8.872 38.5598 8.92C38.5598 8.984 38.4958 9.032 38.4158 9.032C38.3518 9.032 37.9678 9 37.7917 9C37.5838 9 37.3758 9.032 37.1998 9.032C37.0718 9.032 37.0078 8.952 37.0078 8.904C37.0078 8.504 36.7838 7.848 36.7358 7.4H36.7038C36.0158 8.776 34.7998 9.24 33.3278 9.24C31.7758 9.24 29.9198 8.424 29.9198 6.68C29.9198 4.232 33.5677 3.864 35.3758 3.864H36.5918C36.5918 1.992 36.0638 0.839999 34.0318 0.839999C32.9118 0.839999 31.1038 1.448 30.9598 2.712C30.9598 2.76 30.9278 2.776 30.8798 2.776C30.8478 2.776 30.8318 2.776 30.8158 2.728L30.3838 1.208C31.6318 0.664 32.9438 0.44 33.9838 0.44C36.8958 0.44 37.8718 1.704 37.8718 3.56ZM47.077 4.36V2.92C47.077 1.752 47.109 1.208 46.613 0.888C46.453 0.792 46.373 0.759999 46.373 0.695999C46.373 0.648 46.469 0.632 46.581 0.632C46.853 0.632 47.205 0.679999 47.669 0.679999C48.133 0.679999 48.437 0.632 48.709 0.632C48.789 0.632 48.933 0.648 48.933 0.728C48.933 0.776 48.837 0.823999 48.677 0.92C48.181 1.208 48.261 2.312 48.261 3.208V6.472C48.261 7.368 48.341 8.472 48.837 8.76C48.997 8.856 49.141 8.904 49.141 8.952C49.141 9.016 49.077 9.032 48.997 9.032C48.725 9.032 48.133 9 47.669 9C47.205 9 46.613 9.032 46.341 9.032C46.261 9.032 46.213 9.032 46.213 8.984C46.213 8.952 46.341 8.888 46.501 8.792C46.997 8.472 47.077 7.928 47.077 6.76V4.76H41.557V6.76C41.557 7.928 41.637 8.472 42.133 8.792C42.293 8.888 42.421 8.952 42.421 8.984C42.421 9.032 42.373 9.032 42.293 9.032C42.021 9.032 41.429 9 40.965 9C40.501 9 39.909 9.032 39.637 9.032C39.557 9.032 39.493 9.016 39.493 8.952C39.493 8.904 39.637 8.856 39.797 8.76C40.293 8.472 40.373 7.368 40.373 6.472V3.208C40.373 2.312 40.453 1.208 39.957 0.92C39.797 0.823999 39.701 0.776 39.701 0.728C39.701 0.648 39.845 0.632 39.925 0.632C40.197 0.632 40.501 0.679999 40.965 0.679999C41.429 0.679999 41.781 0.632 42.053 0.632C42.165 0.632 42.261 0.648 42.261 0.695999C42.261 0.759999 42.181 0.792 42.021 0.888C41.525 1.208 41.557 1.752 41.557 2.92V4.36H47.077ZM56.748 4.264H55.564C53.868 4.264 51.612 4.584 51.612 6.712C51.612 8.12 52.7 8.84 53.996 8.84C56.396 8.84 56.748 6.92 56.748 4.968V4.264ZM58.028 3.56V6.6C58.028 7.608 58.156 8.648 58.588 8.792C58.668 8.824 58.716 8.872 58.716 8.92C58.716 8.984 58.652 9.032 58.572 9.032C58.508 9.032 58.124 9 57.948 9C57.74 9 57.532 9.032 57.356 9.032C57.228 9.032 57.164 8.952 57.164 8.904C57.164 8.504 56.94 7.848 56.892 7.4H56.86C56.172 8.776 54.956 9.24 53.484 9.24C51.932 9.24 50.076 8.424 50.076 6.68C50.076 4.232 53.724 3.864 55.532 3.864H56.748C56.748 1.992 56.22 0.839999 54.188 0.839999C53.068 0.839999 51.26 1.448 51.116 2.712C51.116 2.76 51.084 2.776 51.036 2.776C51.004 2.776 50.988 2.776 50.972 2.728L50.54 1.208C51.788 0.664 53.1 0.44 54.14 0.44C57.052 0.44 58.028 1.704 58.028 3.56ZM66.9488 4.504C67.2688 4.312 68.1488 3.704 68.9488 3.064C69.7488 2.424 70.4688 1.512 70.4688 1.208C70.4688 1.016 70.4368 0.888 70.2608 0.792C70.1808 0.743999 70.0848 0.743999 70.0848 0.712C70.0848 0.648 70.1328 0.632 70.3248 0.632C70.5008 0.632 70.9808 0.679999 71.6208 0.679999C72.1328 0.679999 72.5808 0.632 72.8368 0.632C72.9968 0.632 73.2048 0.664 73.2048 0.712C73.2048 0.776 73.1088 0.792 72.9488 0.823999C72.3408 0.936 71.3488 1.768 70.4208 2.456L67.9888 4.264V4.296C69.9568 4.296 70.5328 4.904 71.4608 6.392C71.8768 7.064 72.2608 7.576 72.6927 8.024C73.0128 8.376 73.3328 8.6 73.6528 8.744C73.8128 8.824 73.9568 8.872 73.9568 8.92C73.9568 8.968 73.8928 9 73.7008 9H71.5568L69.9728 6.408C69.5248 5.672 68.7728 4.68 67.8128 4.68C67.0128 4.68 66.9488 5.528 66.9488 6.28V7.08C66.9488 7.768 67.0928 8.632 67.5408 8.792C67.7008 8.84 67.9088 8.92 67.9088 8.984C67.9088 9.016 67.8448 9.032 67.6848 9.032C67.4128 9.032 66.8207 9 66.3568 9C65.8928 9 65.3008 9.032 65.0288 9.032C64.8368 9.032 64.7568 9.016 64.7568 8.984C64.7568 8.936 64.9488 8.872 65.1568 8.728C65.6208 8.424 65.7648 7.496 65.7648 6.072V3.208C65.7648 2.312 65.8448 1.208 65.3488 0.92C65.1888 0.823999 65.0928 0.776 65.0928 0.728C65.0928 0.648 65.2368 0.632 65.3168 0.632C65.5888 0.632 65.8928 0.679999 66.3568 0.679999C66.8207 0.679999 67.1728 0.632 67.4448 0.632C67.5568 0.632 67.6528 0.648 67.6528 0.695999C67.6528 0.759999 67.5728 0.792 67.4128 0.888C66.9168 1.208 66.9488 1.752 66.9488 2.92V4.504ZM80.9043 4.264H79.7203C78.0243 4.264 75.7682 4.584 75.7682 6.712C75.7682 8.12 76.8563 8.84 78.1523 8.84C80.5523 8.84 80.9043 6.92 80.9043 4.968V4.264ZM82.1843 3.56V6.6C82.1843 7.608 82.3123 8.648 82.7443 8.792C82.8243 8.824 82.8723 8.872 82.8723 8.92C82.8723 8.984 82.8083 9.032 82.7283 9.032C82.6643 9.032 82.2803 9 82.1042 9C81.8963 9 81.6883 9.032 81.5123 9.032C81.3843 9.032 81.3203 8.952 81.3203 8.904C81.3203 8.504 81.0963 7.848 81.0483 7.4H81.0163C80.3283 8.776 79.1123 9.24 77.6403 9.24C76.0883 9.24 74.2323 8.424 74.2323 6.68C74.2323 4.232 77.8802 3.864 79.6883 3.864H80.9043C80.9043 1.992 80.3763 0.839999 78.3443 0.839999C77.2243 0.839999 75.4163 1.448 75.2723 2.712C75.2723 2.76 75.2403 2.776 75.1923 2.776C75.1603 2.776 75.1443 2.776 75.1283 2.728L74.6963 1.208C75.9443 0.664 77.2563 0.44 78.2963 0.44C81.2083 0.44 82.1843 1.704 82.1843 3.56ZM86.9895 0.92C86.8295 0.823999 86.7335 0.776 86.7335 0.728C86.7335 0.648 86.8775 0.632 86.9575 0.632C87.2295 0.632 87.5975 0.679999 87.9975 0.679999H88.5895L91.7415 6.888C92.2535 7.896 92.6055 8.536 93.0215 8.792C93.1495 8.872 93.2295 8.92 93.2295 8.968C93.2295 9.048 93.1335 9.08 92.9735 9.08C92.7655 9.08 92.2855 9 91.8055 9C91.3095 9 90.8775 9.08 90.6855 9.08C90.4775 9.08 90.3655 9.048 90.3655 8.984C90.3655 8.92 90.4615 8.872 90.6215 8.76C90.8295 8.632 90.8775 8.488 90.8775 8.216C90.8775 7.96 90.6215 7.32 90.2855 6.68L87.9175 2.168L86.4295 5.08C85.8375 6.248 85.2935 7.416 85.2935 7.88C85.2935 8.28 85.4215 8.584 85.7095 8.728C85.9175 8.84 86.1095 8.92 86.1095 8.968C86.1095 9.016 86.0935 9.08 86.0135 9.08C85.8695 9.08 85.2935 9 84.8295 9C84.2055 9 83.8535 9.08 83.7095 9.08C83.6135 9.08 83.5655 9.048 83.5655 8.984C83.5655 8.904 83.6455 8.872 83.7255 8.808C84.2695 8.424 84.9255 7.272 85.6775 5.768L87.6935 1.752C87.4695 1.352 87.3255 1.112 86.9895 0.92ZM95.6508 7.64L101.955 0.728C102.019 0.664 102.163 0.44 102.259 0.44C102.339 0.44 102.355 0.504 102.355 0.728V6.472C102.355 7.368 102.435 8.472 102.931 8.76C103.091 8.856 103.235 8.904 103.235 8.952C103.235 9.016 103.171 9.032 103.091 9.032C102.819 9.032 102.227 9 101.763 9C101.299 9 100.707 9.032 100.435 9.032C100.355 9.032 100.307 9.032 100.307 8.984C100.307 8.952 100.435 8.888 100.595 8.792C101.091 8.472 101.171 7.928 101.171 6.76V2.168L94.9308 9.032C94.8668 9.112 94.7068 9.272 94.5948 9.272C94.5148 9.272 94.4668 9.208 94.4668 9V3.208C94.4668 2.312 94.5468 1.208 94.0508 0.92C93.8908 0.823999 93.7948 0.776 93.7948 0.728C93.7948 0.648 93.9388 0.632 94.0188 0.632C94.2908 0.632 94.5948 0.679999 95.0588 0.679999C95.5228 0.679999 95.8748 0.632 96.1468 0.632C96.2588 0.632 96.3548 0.648 96.3548 0.695999C96.3548 0.759999 96.2748 0.792 96.1148 0.888C95.6188 1.208 95.6508 1.752 95.6508 2.92V7.64ZM111.546 4.36V2.92C111.546 1.752 111.578 1.208 111.082 0.888C110.922 0.792 110.842 0.759999 110.842 0.695999C110.842 0.648 110.938 0.632 111.05 0.632C111.322 0.632 111.674 0.679999 112.138 0.679999C112.602 0.679999 112.906 0.632 113.178 0.632C113.258 0.632 113.402 0.648 113.402 0.728C113.402 0.776 113.306 0.823999 113.146 0.92C112.65 1.208 112.73 2.312 112.73 3.208V6.472C112.73 7.368 112.81 8.472 113.306 8.76C113.466 8.856 113.61 8.904 113.61 8.952C113.61 9.016 113.546 9.032 113.466 9.032C113.194 9.032 112.602 9 112.138 9C111.674 9 111.082 9.032 110.81 9.032C110.73 9.032 110.682 9.032 110.682 8.984C110.682 8.952 110.81 8.888 110.97 8.792C111.466 8.472 111.546 7.928 111.546 6.76V4.76H106.026V6.76C106.026 7.928 106.106 8.472 106.602 8.792C106.762 8.888 106.89 8.952 106.89 8.984C106.89 9.032 106.842 9.032 106.762 9.032C106.49 9.032 105.898 9 105.434 9C104.97 9 104.378 9.032 104.106 9.032C104.026 9.032 103.962 9.016 103.962 8.952C103.962 8.904 104.106 8.856 104.266 8.76C104.762 8.472 104.842 7.368 104.842 6.472V3.208C104.842 2.312 104.922 1.208 104.426 0.92C104.266 0.823999 104.17 0.776 104.17 0.728C104.17 0.648 104.314 0.632 104.394 0.632C104.666 0.632 104.97 0.679999 105.434 0.679999C105.898 0.679999 106.25 0.632 106.522 0.632C106.634 0.632 106.73 0.648 106.73 0.695999C106.73 0.759999 106.65 0.792 106.49 0.888C105.994 1.208 106.026 1.752 106.026 2.92V4.36H111.546ZM116.401 7.64L122.705 0.728C122.769 0.664 122.913 0.44 123.009 0.44C123.089 0.44 123.105 0.504 123.105 0.728V6.472C123.105 7.368 123.185 8.472 123.681 8.76C123.841 8.856 123.985 8.904 123.985 8.952C123.985 9.016 123.921 9.032 123.841 9.032C123.569 9.032 122.977 9 122.513 9C122.049 9 121.457 9.032 121.185 9.032C121.105 9.032 121.057 9.032 121.057 8.984C121.057 8.952 121.185 8.888 121.345 8.792C121.841 8.472 121.921 7.928 121.921 6.76V2.168L115.681 9.032C115.617 9.112 115.457 9.272 115.345 9.272C115.265 9.272 115.217 9.208 115.217 9V3.208C115.217 2.312 115.297 1.208 114.801 0.92C114.641 0.823999 114.545 0.776 114.545 0.728C114.545 0.648 114.689 0.632 114.769 0.632C115.041 0.632 115.345 0.679999 115.809 0.679999C116.273 0.679999 116.625 0.632 116.897 0.632C117.009 0.632 117.105 0.648 117.105 0.695999C117.105 0.759999 117.025 0.792 116.865 0.888C116.369 1.208 116.401 1.752 116.401 2.92V7.64ZM132.296 4.36V2.92C132.296 1.752 132.328 1.208 131.832 0.888C131.672 0.792 131.592 0.759999 131.592 0.695999C131.592 0.648 131.688 0.632 131.8 0.632C132.072 0.632 132.424 0.679999 132.888 0.679999C133.352 0.679999 133.656 0.632 133.928 0.632C134.008 0.632 134.152 0.648 134.152 0.728C134.152 0.776 134.056 0.823999 133.896 0.92C133.4 1.208 133.48 2.312 133.48 3.208V6.472C133.48 7.368 133.56 8.472 134.056 8.76C134.216 8.856 134.36 8.904 134.36 8.952C134.36 9.016 134.296 9.032 134.216 9.032C133.944 9.032 133.352 9 132.888 9C132.424 9 131.832 9.032 131.56 9.032C131.48 9.032 131.432 9.032 131.432 8.984C131.432 8.952 131.56 8.888 131.72 8.792C132.216 8.472 132.296 7.928 132.296 6.76V4.76H126.776V6.76C126.776 7.928 126.856 8.472 127.352 8.792C127.512 8.888 127.64 8.952 127.64 8.984C127.64 9.032 127.592 9.032 127.512 9.032C127.24 9.032 126.648 9 126.184 9C125.72 9 125.128 9.032 124.856 9.032C124.776 9.032 124.712 9.016 124.712 8.952C124.712 8.904 124.856 8.856 125.016 8.76C125.512 8.472 125.592 7.368 125.592 6.472V3.208C125.592 2.312 125.672 1.208 125.176 0.92C125.016 0.823999 124.92 0.776 124.92 0.728C124.92 0.648 125.064 0.632 125.144 0.632C125.416 0.632 125.72 0.679999 126.184 0.679999C126.648 0.679999 127 0.632 127.272 0.632C127.384 0.632 127.48 0.648 127.48 0.695999C127.48 0.759999 127.4 0.792 127.24 0.888C126.744 1.208 126.776 1.752 126.776 2.92V4.36H132.296ZM141.967 4.264H140.783C139.087 4.264 136.831 4.584 136.831 6.712C136.831 8.12 137.919 8.84 139.215 8.84C141.615 8.84 141.967 6.92 141.967 4.968V4.264ZM143.247 3.56V6.6C143.247 7.608 143.375 8.648 143.807 8.792C143.887 8.824 143.935 8.872 143.935 8.92C143.935 8.984 143.871 9.032 143.791 9.032C143.727 9.032 143.343 9 143.167 9C142.959 9 142.751 9.032 142.575 9.032C142.447 9.032 142.383 8.952 142.383 8.904C142.383 8.504 142.159 7.848 142.111 7.4H142.079C141.391 8.776 140.175 9.24 138.703 9.24C137.151 9.24 135.295 8.424 135.295 6.68C135.295 4.232 138.943 3.864 140.751 3.864H141.967C141.967 1.992 141.439 0.839999 139.407 0.839999C138.287 0.839999 136.479 1.448 136.335 2.712C136.335 2.76 136.303 2.776 136.255 2.776C136.223 2.776 136.207 2.776 136.191 2.728L135.759 1.208C137.007 0.664 138.319 0.44 139.359 0.44C142.271 0.44 143.247 1.704 143.247 3.56Z" fill="#2E271E"/>
</g>
<defs>
<clipPath id="clip0_202_4">
<rect width="144" height="10" fill="white"/>
</clipPath>
</defs>
</svg>
